<svg width="215" height="45" viewBox="0 0 215 45" fill="none" xmlns="http://www.w3.org/2000/svg">
<path d="M31.5471 26.4823V0.494629H52.153V5.01868H37.6574V11.1163H49.9997V15.6404H37.6574V22.4422H52.153V26.4823H31.5471Z" fill="#6FBAC6"/>
<path d="M170.338 9.75516L174.566 22.3124H165.984L170.342 9.75516H170.338ZM181.997 26.3053L172.582 0.494629H167.78L158.401 26.3053H181.993H181.997Z" fill="#6FBAC6"/>
<path d="M100.049 26.2464H106.171V5.90387H114.364V0.435669H91.8559V5.90387H100.049V26.2464Z" fill="#6FBAC6"/>
<path d="M130.325 26.3604V12.6781L139.146 26.3604H148.208V0.549683H142.086V19.7749L129.665 0.549683H124.203V26.3604H130.325Z" fill="#6FBAC6"/>
<path d="M208.878 0.530029V19.7553L196.457 0.530029H190.995V26.3407H197.117V12.6584L205.939 26.3407H215V0.530029H208.878Z" fill="#6FBAC6"/>
<path d="M9.38424 18.2477L13.1968 18.7758C14.661 18.9938 15.3705 19.3017 15.9916 19.8725C16.6558 20.4883 16.9663 21.4119 16.9663 22.513C16.9663 24.2618 15.998 25.4377 14.1909 26H22.2603C22.7326 24.9139 23 23.6953 23 22.3376C23 19.5668 22.2452 17.2813 20.5611 15.6971C19.2327 14.4677 17.4127 13.6767 14.5295 13.279L10.8053 12.7531C9.51794 12.5756 8.49794 12.0946 7.87689 11.5216C7.21055 10.9058 6.94531 10.0699 6.94531 9.27884C6.94531 7.12589 8.54107 5.32357 11.8232 5.32357C13.9084 5.32357 16.5005 5.79179 18.4952 7.68391L22.4242 3.77995C19.7179 1.18658 16.3452 0 12 0C5.17055 0 1 3.91251 1 9.49692C1 12.1352 1.75475 14.1577 3.26426 15.6543C4.6832 17.0162 6.67791 17.85 9.38424 18.2477" fill="#6FBAC6"/>
<path d="M0 26H9C7.43911 25.55 5.32818 24.1868 3.79428 22L0 26Z" fill="#6FBAC6"/>
<path d="M72.4289 19.7317H78.2012V20.9237C78.2012 22.5563 77.8043 23.9686 76.7905 25.1133C76.3033 25.6444 75.7021 26.0693 75.0066 26.3683H82.9754C83.8988 24.5233 84.2761 22.2848 84.2761 19.2045V14.6176H72.4289V19.7317V19.7317Z" fill="#6FBAC6"/>
<path d="M62.1495 26.3683H70.024C69.4307 26.0929 68.916 25.7113 68.5112 25.2471C67.3206 23.9253 67.0141 22.4265 67.0141 16.3839C67.0141 10.3414 67.3206 8.88973 68.5112 7.56399C69.3914 6.54903 70.7589 5.88812 72.4328 5.88812C75.5606 5.88812 77.3681 7.52072 78.0715 10.4751H84.2368C83.3998 5.18395 79.6983 0.419922 72.4328 0.419922C68.9081 0.419922 66.1772 1.65518 63.9767 3.8582C60.8056 7.0329 60.8921 10.959 60.8921 16.38C60.8921 20.4477 60.8449 23.6696 62.1534 26.3683" fill="#6FBAC6"/>
<path d="M1 44.7876V33.1593H4.40886C5.88496 33.1593 6.98408 33.3929 7.70621 33.8602C8.43895 34.3168 8.80532 35.0177 8.80532 35.9628C8.80532 36.6637 8.61417 37.2372 8.23187 37.6832C7.84957 38.1186 7.30267 38.4159 6.59116 38.5752V38.6071C7.51506 38.7558 8.20532 39.0743 8.66196 39.5628C9.1186 40.0513 9.34692 40.7151 9.34692 41.554C9.34692 42.6478 8.94338 43.4602 8.1363 43.9912C7.32921 44.5221 6.10266 44.7876 4.45664 44.7876H1ZM4.45664 43.6407C5.69912 43.6407 6.60709 43.4655 7.18054 43.1151C7.75399 42.754 8.04072 42.1912 8.04072 41.4266C8.04072 40.662 7.74868 40.1044 7.16461 39.754C6.59116 39.3929 5.6885 39.2124 4.45664 39.2124H1.63717V38.0974H4.45664C5.50797 38.0974 6.28319 37.9434 6.78231 37.6354C7.28143 37.3168 7.53098 36.8283 7.53098 36.1699C7.53098 35.5221 7.28674 35.0496 6.79824 34.7522C6.30974 34.4549 5.52921 34.3062 4.45664 34.3062H2.27434V43.6407H4.45664Z" fill="#6FBAC6"/>
<path d="M14.655 44.7876V33.1593H17.9842C19.6727 33.1593 20.9045 33.4301 21.6797 33.9717C22.455 34.5027 22.8426 35.3522 22.8426 36.5204C22.8426 37.6779 22.4656 38.5381 21.7116 39.1009C20.9576 39.6531 19.7895 39.9292 18.2072 39.9292H15.2921V38.8142H18.0479C19.2797 38.8142 20.1665 38.6389 20.7081 38.2885C21.2603 37.9274 21.5364 37.354 21.5364 36.5681C21.5364 35.7823 21.2603 35.2142 20.7081 34.8637C20.1665 34.5027 19.2797 34.3221 18.0479 34.3221H15.9293V44.7876H14.655ZM21.7275 44.7876L15.8974 39.4354H17.5381L23.416 44.7876H21.7275Z" fill="#6FBAC6"/>
<path d="M27.4567 44.7876L31.901 33.1593H33.6372L38.0815 44.7876H36.6797L32.7771 34.2584H32.7452L28.8585 44.7876H27.4567ZM29.5116 41.5859V40.423H36.0426V41.5859H29.5116Z" fill="#6FBAC6"/>
<path d="M43.1664 44.7876V33.1593H44.4885V44.7876H43.1664Z" fill="#6FBAC6"/>
<path d="M50.7975 44.7876V33.1593H52.2471L58.5232 42.7646H58.555V33.1593H59.8294V44.7876H58.3958L52.1037 35.1823H52.0718V44.7876H50.7975Z" fill="#6FBAC6"/>
<path d="M76.9221 44.7876V34.3221H72.7486V33.1593H82.4176V34.3221H78.2442V44.7876H76.9221Z" fill="#6FBAC6"/>
<path d="M87.5778 44.7876V33.1593H94.969V34.3062H88.8522V38.0974H94.6504V39.2283H88.8522V43.6407H94.969V44.7876H87.5778Z" fill="#6FBAC6"/>
<path d="M105.898 44.9469C104.677 44.9469 103.615 44.708 102.712 44.2301C101.81 43.7416 101.114 43.0513 100.626 42.1593C100.148 41.2673 99.9089 40.2053 99.9089 38.9735C99.9089 37.7416 100.148 36.6797 100.626 35.7876C101.114 34.8956 101.81 34.2106 102.712 33.7327C103.615 33.2442 104.677 33 105.898 33C107.321 33 108.58 33.3292 109.674 33.9876L109.339 35.1186C108.277 34.4814 107.146 34.1628 105.946 34.1628C104.98 34.1628 104.141 34.3593 103.429 34.7522C102.728 35.1451 102.187 35.7027 101.805 36.4248C101.422 37.1363 101.231 37.9858 101.231 38.9735C101.231 39.9505 101.422 40.8 101.805 41.5221C102.187 42.2443 102.728 42.8018 103.429 43.1947C104.141 43.5876 104.98 43.7841 105.946 43.7841C107.125 43.7841 108.256 43.4655 109.339 42.8283L109.674 43.9593C108.58 44.6177 107.321 44.9469 105.898 44.9469Z" fill="#6FBAC6"/>
<path d="M122.932 44.7876V33.1593H124.207V44.7876H122.932ZM115.541 44.7876V33.1593H116.815V44.7876H115.541ZM116.178 39.2443V38.0814H123.569V39.2443H116.178Z" fill="#6FBAC6"/>
<path d="M130.363 44.7876V33.1593H131.812L138.088 42.7646H138.12V33.1593H139.395V44.7876H137.961L131.669 35.1823H131.637V44.7876H130.363Z" fill="#6FBAC6"/>
<path d="M150.751 44.9469C149.562 44.9469 148.516 44.7027 147.613 44.2142C146.721 43.7151 146.031 43.0195 145.542 42.1274C145.054 41.2248 144.809 40.1735 144.809 38.9735C144.809 37.7628 145.054 36.7115 145.542 35.8195C146.031 34.9274 146.721 34.2372 147.613 33.7487C148.516 33.2496 149.562 33 150.751 33C151.962 33 153.008 33.2496 153.889 33.7487C154.781 34.2372 155.471 34.9274 155.96 35.8195C156.459 36.7115 156.709 37.7628 156.709 38.9735C156.709 40.1735 156.459 41.2248 155.96 42.1274C155.471 43.0195 154.781 43.7151 153.889 44.2142C153.008 44.7027 151.962 44.9469 150.751 44.9469ZM150.751 43.7841C151.696 43.7841 152.514 43.5876 153.204 43.1947C153.905 42.7912 154.447 42.2336 154.829 41.5221C155.211 40.8 155.402 39.9505 155.402 38.9735C155.402 37.9965 155.211 37.1522 154.829 36.4407C154.447 35.7186 153.905 35.1611 153.204 34.7681C152.514 34.3646 151.696 34.1628 150.751 34.1628C149.817 34.1628 148.999 34.3646 148.298 34.7681C147.597 35.1611 147.055 35.7186 146.673 36.4407C146.301 37.1522 146.116 37.9965 146.116 38.9735C146.116 39.9505 146.301 40.8 146.673 41.5221C147.055 42.2336 147.597 42.7912 148.298 43.1947C148.999 43.5876 149.817 43.7841 150.751 43.7841Z" fill="#6FBAC6"/>
<path d="M162.122 44.7876V33.1593H163.428V43.6248H170.039V44.7876H162.122Z" fill="#6FBAC6"/>
<path d="M179.181 44.9469C177.992 44.9469 176.946 44.7027 176.043 44.2142C175.151 43.7151 174.461 43.0195 173.972 42.1274C173.484 41.2248 173.239 40.1735 173.239 38.9735C173.239 37.7628 173.484 36.7115 173.972 35.8195C174.461 34.9274 175.151 34.2372 176.043 33.7487C176.946 33.2496 177.992 33 179.181 33C180.392 33 181.438 33.2496 182.319 33.7487C183.211 34.2372 183.901 34.9274 184.39 35.8195C184.889 36.7115 185.139 37.7628 185.139 38.9735C185.139 40.1735 184.889 41.2248 184.39 42.1274C183.901 43.0195 183.211 43.7151 182.319 44.2142C181.438 44.7027 180.392 44.9469 179.181 44.9469ZM179.181 43.7841C180.126 43.7841 180.944 43.5876 181.634 43.1947C182.335 42.7912 182.877 42.2336 183.259 41.5221C183.641 40.8 183.832 39.9505 183.832 38.9735C183.832 37.9965 183.641 37.1522 183.259 36.4407C182.877 35.7186 182.335 35.1611 181.634 34.7681C180.944 34.3646 180.126 34.1628 179.181 34.1628C178.246 34.1628 177.429 34.3646 176.728 34.7681C176.027 35.1611 175.485 35.7186 175.103 36.4407C174.731 37.1522 174.546 37.9965 174.546 38.9735C174.546 39.9505 174.731 40.8 175.103 41.5221C175.485 42.2336 176.027 42.7912 176.728 43.1947C177.429 43.5876 178.246 43.7841 179.181 43.7841Z" fill="#6FBAC6"/>
<path d="M196.203 44.9469C194.907 44.9469 193.792 44.708 192.858 44.2301C191.934 43.7522 191.222 43.0673 190.723 42.1752C190.224 41.2726 189.974 40.2053 189.974 38.9735C189.974 37.731 190.224 36.6637 190.723 35.7717C191.222 34.8796 191.928 34.1947 192.842 33.7168C193.766 33.2389 194.865 33 196.139 33C196.84 33 197.504 33.0796 198.13 33.2389C198.757 33.3876 199.325 33.6212 199.835 33.9398L199.5 35.0389C199.033 34.7522 198.507 34.5345 197.923 34.3858C197.35 34.2372 196.755 34.1628 196.139 34.1628C195.141 34.1628 194.281 34.354 193.559 34.7363C192.847 35.1186 192.295 35.6708 191.902 36.3929C191.52 37.1044 191.328 37.9646 191.328 38.9735C191.328 39.9823 191.52 40.8478 191.902 41.5699C192.295 42.2814 192.852 42.8283 193.574 43.2106C194.307 43.5929 195.183 43.7841 196.203 43.7841C196.766 43.7841 197.323 43.7257 197.875 43.6089C198.438 43.4921 198.927 43.3275 199.341 43.1151L199.102 43.6089V39.3239H194.753V38.2248H200.376V44.0549C199.824 44.331 199.176 44.5487 198.433 44.708C197.689 44.8673 196.946 44.9469 196.203 44.9469Z" fill="#6FBAC6"/>
<path d="M209.074 44.7876V40.2956L204.487 33.1593H205.952L209.727 39.1328H209.759L213.519 33.1593H215L210.396 40.2956V44.7876H209.074Z" fill="#6FBAC6"/>
</svg>
